<svg version="1.0" xmlns="http://www.w3.org/2000/svg" width="600.000000pt" height="600.000000pt" viewBox="0 0 600.000000 600.000000" preserveAspectRatio="xMidYMid meet" style="width: 272.731px; height: auto;"> <g transform="translate(0.000000,600.000000) scale(0.100000,-0.100000)" fill="#000000" stroke="none"> <path d="M1375 3969 c18 -7 17 -8 -6 -8 -34 -1 -129 -32 -149 -48 -66 -54 -120 -108 -125 -124 -4 -10 -14 -19 -22 -19 -9 0 -14 -3 -10 -6 3 -4 -1 -24 -10 -45 -8 -21 -13 -45 -10 -53 3 -8 1 -17 -6 -19 -9 -3 -9 -7 -1 -18 6 -8 23 -48 38 -90 35 -101 37 -206 4 -252 -52 -74 -110 -97 -185 -77 -54 15 -94 36 -243 127 -125 77 -228 99 -305 68 -34 -15 -115 -85 -98 -85 4 0 0 -5 -9 -11 -10 -5 -18 -18 -18 -27 0 -9 -7 -26 -15 -36 -19 -25 -19 -124 -1 -193 8 -29 12 -53 9 -53 -2 0 5 -13 17 -30 12 -16 18 -35 15 -40 -4 -6 -1 -9 7 -8 7 2 14 -7 16 -20 2 -12 8 -20 13 -16 6 3 13 -3 16 -15 3 -12 9 -21 15 -21 5 0 19 -9 31 -21 32 -31 94 -69 112 -69 8 0 15 -4 15 -10 0 -5 8 -6 17 -3 14 5 14 8 2 11 -34 12 -130 85 -175 136 -112 124 -131 334 -37 416 55 48 149 63 237 38 22 -7 88 -40 146 -75 143 -86 150 -89 195 -109 43 -19 80 -21 133 -9 69 16 12 -28 -84 -65 -42 -15 -172 -8 -247 13 -32 9 -84 17 -116 17 -55 0 -61 -3 -99 -39 -31 -30 -42 -50 -47 -83 -10 -69 32 -167 91 -211 33 -25 32 -1 -2 38 -37 42 -62 105 -59 146 2 19 3 42 4 53 1 12 6 16 17 12 9 -3 12 -2 8 5 -3 6 4 20 16 31 30 28 100 27 218 -2 104 -25 187 -24 243 4 18 9 37 16 44 16 22 0 53 44 52 72 -2 26 -17 41 -17 17 0 -5 -5 -7 -12 -3 -8 5 0 13 22 22 19 7 41 22 50 32 8 10 22 27 31 37 8 10 14 24 11 31 -2 7 2 12 9 12 29 0 -11 274 -43 288 -5 2 -8 10 -8 18 0 8 -4 14 -10 14 -5 0 -10 5 -10 10 0 6 8 10 18 10 10 0 28 9 39 19 12 11 23 17 26 15 3 -3 10 4 17 15 6 12 15 19 20 16 4 -3 10 0 12 7 3 7 29 12 70 12 57 1 70 -2 92 -23 14 -13 23 -27 21 -32 -3 -4 -1 -9 5 -11 17 -5 13 -79 -10 -187 -21 -101 -22 -146 -5 -243 4 -21 11 -35 16 -32 5 3 9 -4 9 -15 0 -12 4 -21 8 -21 5 0 14 -11 22 -24 7 -15 18 -22 27 -19 10 4 11 8 3 13 -38 24 -88 198 -72 253 24 82 37 158 37 223 0 71 -1 72 -39 107 -72 66 -164 60 -252 -17 -28 -25 -54 -43 -57 -39 -18 18 136 213 169 213 8 0 14 4 14 9 0 18 124 50 196 51 129 0 191 -48 214 -169 14 -72 -23 -175 -110 -310 -22 -34 -40 -66 -40 -71 0 -4 -4 -10 -10 -12 -30 -10 -65 -187 -40 -203 6 -3 10 -18 11 -33 0 -19 2 -22 7 -11 6 13 13 9 37 -22 40 -52 98 -79 165 -79 68 0 178 27 209 51 13 11 29 19 36 19 10 0 14 37 7 60 -1 3 -21 6 -43 7 -43 1 -61 16 -51 41 3 10 1 13 -6 8 -9 -5 -12 13 -12 69 0 51 3 74 11 70 7 -5 8 5 4 29 -5 23 -3 36 3 36 10 0 30 164 25 200 -2 8 -3 33 -4 55 -1 22 -6 45 -11 52 -5 7 -7 17 -3 23 4 6 1 9 -6 8 -7 -2 -13 2 -14 9 0 7 -6 18 -12 25 -7 6 -13 16 -13 20 0 13 -96 103 -111 104 -8 1 -23 5 -34 9 -11 5 -2 -6 20 -24 61 -50 104 -100 128 -150 30 -64 35 -202 11 -308 -10 -43 -19 -115 -22 -161 -3 -82 -3 -83 28 -112 24 -23 42 -30 71 -30 51 0 49 -13 -3 -35 -115 -48 -218 -64 -273 -41 -53 23 -101 77 -108 123 -12 79 12 138 134 328 34 54 68 140 75 195 9 69 -9 118 -65 176 -51 53 -78 68 -146 80 -59 10 -144 13 -120 3z m-927 -576 c-10 -2 -28 -2 -40 0 -13 2 -5 4 17 4 22 1 32 -1 23 -4z"></path> <path d="M1731 3904 c0 -11 3 -14 6 -6 3 7 2 16 -1 19 -3 4 -6 -2 -5 -13z"></path> <path d="M2770 3653 c-29 -12 -40 -32 -40 -76 0 -32 -5 -47 -16 -51 -24 -9 -34 2 -34 37 -1 58 -21 80 -76 83 -27 1 -43 0 -36 -3 10 -4 7 -9 -8 -17 -22 -11 -22 -16 -23 -171 -1 -189 4 -205 64 -205 29 0 38 -3 33 -12 -4 -7 3 -4 15 8 17 16 23 34 24 70 1 27 7 52 12 56 6 5 5 8 -3 8 -7 0 -10 5 -7 10 3 6 18 10 33 10 21 0 24 -2 12 -10 -11 -7 -12 -10 -2 -10 10 0 13 -14 10 -54 -4 -63 8 -76 71 -76 45 0 62 16 63 59 1 39 8 39 30 2 51 -91 201 -95 272 -7 40 49 51 77 54 140 l2 30 23 -30 c12 -17 27 -29 32 -27 6 1 24 -9 40 -23 l30 -26 -30 8 c-16 4 -31 10 -33 14 -5 13 -42 -1 -42 -16 0 -7 -5 -16 -12 -20 -7 -5 -8 -2 -3 7 5 8 5 11 0 7 -17 -16 -13 -70 7 -93 41 -47 166 -40 223 13 25 22 28 23 23 6 -7 -27 15 -44 59 -48 43 -3 73 18 73 51 0 47 17 70 57 78 24 4 48 18 65 38 l28 31 1 -55 c4 -138 4 -139 62 -139 52 1 74 16 74 55 0 17 1 73 2 126 l1 95 43 -5 42 -6 1 -119 c1 -134 7 -146 75 -146 56 0 62 15 63 148 l1 117 30 1 c17 1 32 3 35 4 3 1 8 2 13 1 4 0 7 4 7 10 0 5 4 8 9 5 5 -3 11 9 14 27 2 18 0 35 -6 39 -6 4 -8 10 -4 14 9 10 -30 37 -43 29 -6 -3 -10 -1 -10 5 0 6 -4 9 -9 5 -6 -3 -58 -6 -118 -7 -59 0 -114 -5 -120 -11 -9 -6 -13 -5 -13 4 0 11 -2 11 -10 -1 -8 -13 -11 -13 -19 -1 -5 8 -18 12 -29 8 -12 -2 -22 -2 -24 2 -2 3 -19 3 -38 0 -19 -4 -26 -7 -15 -8 17 -1 17 -3 5 -11 -8 -5 -16 -14 -16 -20 -1 -5 -2 -18 -3 -27 -2 -15 -4 -14 -13 4 -6 13 -24 28 -39 35 -16 7 -29 16 -29 20 0 4 -34 7 -75 7 -41 0 -80 3 -87 7 -7 4 -8 3 -4 -4 5 -8 0 -12 -13 -12 -12 0 -21 -6 -21 -14 0 -9 -7 -12 -20 -9 -11 3 -17 10 -13 16 3 5 1 7 -5 3 -5 -3 -12 -1 -14 6 -3 9 -26 12 -72 10 -79 -2 -108 -19 -133 -78 -15 -36 -19 -39 -28 -25 -41 67 -51 81 -62 81 -6 0 -13 5 -15 11 -5 14 -131 13 -160 -2 -32 -16 -68 -50 -68 -65 0 -6 -7 -17 -15 -24 -13 -11 -15 -7 -15 23 0 19 6 38 13 40 7 3 5 6 -5 6 -10 1 -18 6 -18 11 0 6 -12 10 -27 11 -25 0 -26 1 -8 9 18 8 18 9 -5 9 -14 -1 -32 -3 -40 -6z m-119 -38 c3 -2 2 -29 -1 -60 -3 -30 -4 -55 -1 -56 4 0 29 -1 56 -2 l50 -2 -1 63 -1 62 41 0 41 0 0 -174 0 -174 -43 0 -42 0 4 74 4 74 -56 0 -57 0 3 -81 c3 -79 3 -80 -17 -70 -11 7 -31 10 -44 7 l-24 -4 -1 174 -1 174 43 0 c23 0 45 -2 47 -5z m461 -5 c13 -6 34 -27 47 -47 19 -30 23 -50 24 -113 0 -65 -3 -82 -23 -111 -28 -40 -42 -50 -90 -65 -59 -18 -118 2 -157 54 -30 39 -33 50 -33 110 0 73 14 110 58 154 23 23 35 27 89 27 34 1 72 -4 85 -9z m326 -2 c7 -9 6 -23 -4 -47 -11 -26 -18 -31 -31 -26 -10 5 -33 10 -50 13 -26 3 -33 1 -33 -13 0 -18 37 -54 57 -55 7 0 28 -16 48 -35 82 -83 7 -193 -118 -174 -70 11 -79 21 -60 69 l16 39 27 -19 c29 -21 47 -24 74 -14 30 12 16 39 -34 67 -72 41 -90 63 -90 113 0 31 6 48 26 68 24 23 35 26 94 26 42 0 72 -5 78 -12z m239 0 c43 -18 63 -48 63 -96 0 -73 -52 -122 -131 -122 l-31 0 4 -57 3 -58 -42 -2 -42 -1 -3 174 -3 174 77 0 c42 0 90 -5 105 -12z m196 -160 l-2 -173 -41 0 c-22 0 -40 3 -40 8 0 4 0 81 0 172 l0 165 43 0 42 0 -2 -172z m333 156 c-3 -9 -6 -26 -6 -40 0 -22 -3 -23 -52 -21 l-53 2 1 -138 1 -138 -41 3 -40 3 3 137 3 137 -55 -6 -55 -6 -4 37 c-2 20 -2 39 1 41 2 3 72 5 154 5 132 0 148 -2 143 -16z m-727 -116 c1 -37 -18 -36 -71 2 -22 17 -37 30 -32 30 6 0 15 -5 21 -11 8 -8 16 -8 30 0 10 6 14 11 9 11 -6 0 -1 6 10 14 17 13 20 13 26 -2 4 -9 7 -29 7 -44z" class=""></path> <path d="M2979 3519 c-17 -24 -20 -40 -17 -79 9 -95 62 -129 113 -74 21 22 25 37 25 85 0 71 -19 99 -67 99 -24 0 -37 -7 -54 -31z m40 -16 c1 9 7 17 15 17 28 0 40 -33 37 -102 -1 -29 -41 -62 -49 -39 -2 6 -7 9 -12 6 -12 -8 -23 70 -14 107 6 29 8 30 15 13 6 -17 8 -17 8 -2z"></path> <path d="M3580 3505 c0 -49 9 -54 55 -33 48 22 24 78 -34 78 -18 0 -21 -6 -21 -45z"></path> <path d="M4301 3641 c-21 -16 -44 -64 -56 -115 -3 -11 -9 -22 -14 -25 -5 -3 -15 -26 -22 -51 -7 -25 -20 -56 -28 -70 -9 -13 -15 -27 -15 -30 1 -3 -2 -15 -7 -28 -15 -38 -10 -59 13 -65 l22 -6 -21 -23 c-36 -38 -41 -66 -39 -220 1 -82 -2 -148 -6 -148 -5 0 -8 5 -8 10 0 6 -11 8 -23 6 -13 -2 -39 -1 -57 3 l-34 7 -3 109 c-2 61 -4 117 -4 126 0 18 -37 29 -91 29 -21 0 -31 -6 -35 -18 -4 -18 -6 -18 -42 0 -21 10 -59 19 -85 20 -47 1 -126 -27 -126 -44 0 -5 -5 -6 -12 -2 -6 4 -8 3 -4 -4 3 -6 0 -14 -7 -19 -38 -23 -52 -206 -20 -253 62 -89 170 -118 252 -68 33 21 34 21 48 3 11 -16 28 -19 121 -21 59 0 112 3 118 8 6 4 35 4 64 -2 57 -11 75 -4 90 35 8 19 9 19 9 -2 1 -12 10 -27 20 -33 24 -12 88 -13 95 -1 8 12 -18 21 -60 21 l-34 0 0 175 0 175 25 0 c24 0 74 -42 75 -63 0 -4 11 -19 25 -33 14 -14 25 -29 25 -34 0 -11 29 -40 40 -40 6 0 5 11 0 26 -6 14 -10 52 -10 85 l0 59 40 0 40 0 0 -180 c0 -157 -2 -180 -16 -180 -18 0 -30 12 -64 60 -13 19 -30 41 -37 48 -7 7 -20 26 -30 42 -9 17 -21 30 -26 30 -5 0 -7 -38 -6 -85 2 -62 7 -85 16 -85 7 0 13 7 13 15 0 8 6 15 13 15 8 0 8 3 -2 9 -8 5 -11 16 -7 26 5 14 9 15 22 5 8 -7 12 -20 9 -29 -3 -8 -3 -13 0 -9 4 3 22 -10 41 -29 29 -29 40 -34 62 -28 15 3 28 11 30 16 2 5 16 3 30 -5 15 -7 38 -12 52 -11 14 2 33 4 43 4 10 1 15 6 12 11 -3 6 -2 10 3 10 5 0 12 19 16 42 l7 42 19 -32 c11 -17 36 -42 57 -55 42 -27 118 -43 128 -27 4 6 10 8 15 5 5 -3 20 0 32 7 13 7 29 13 36 13 8 0 23 23 34 50 11 28 24 59 29 70 5 11 29 70 53 130 39 96 47 110 67 110 17 0 25 -7 29 -25 3 -14 13 -41 22 -60 9 -19 36 -85 59 -146 42 -107 45 -111 91 -137 52 -29 85 -29 147 1 57 28 82 59 76 93 -4 20 -2 28 5 24 7 -4 7 3 0 21 -19 49 -43 82 -64 88 -19 5 -18 6 6 26 15 11 32 36 38 56 11 32 10 38 -9 55 -42 39 -149 40 -192 3 -8 -8 -21 -14 -28 -14 -7 0 -11 -6 -8 -14 3 -8 1 -16 -6 -19 -22 -7 -14 -89 13 -124 13 -18 29 -33 34 -33 6 0 25 -11 41 -25 24 -19 26 -24 12 -25 -10 0 -16 4 -13 9 3 5 -4 11 -15 14 -24 6 -59 -12 -59 -30 0 -6 -4 -15 -10 -18 -6 -3 -7 1 -4 9 3 9 1 16 -5 16 -6 0 -11 7 -11 15 0 8 -4 15 -8 15 -5 0 -16 26 -26 58 -10 31 -25 71 -34 87 -9 17 -16 39 -17 49 -1 11 -7 22 -13 24 -7 2 -12 10 -12 18 0 10 -12 14 -40 14 -36 0 -42 -4 -54 -32 -16 -35 -23 -58 -24 -71 0 -4 -7 -19 -16 -31 -8 -13 -25 -52 -36 -87 -23 -67 -40 -96 -40 -65 0 9 -4 14 -10 11 -5 -3 -10 -2 -10 3 0 5 -11 14 -24 20 -20 9 -27 7 -42 -9 -22 -24 -39 -24 -64 1 -22 22 -27 79 -8 98 7 7 8 12 3 12 -6 1 1 7 15 14 21 12 29 12 52 0 23 -12 31 -12 48 -2 11 7 20 19 20 26 0 7 4 11 9 8 4 -3 8 11 7 31 -1 31 -7 40 -34 56 -36 21 -137 26 -156 7 -5 -5 -18 -10 -27 -10 -11 0 -30 -22 -49 -55 -17 -30 -34 -55 -36 -55 -3 0 -4 23 -3 51 2 41 -1 54 -16 65 -25 18 -79 18 -115 -1 -25 -13 -29 -13 -34 1 -8 21 -77 16 -93 -7 -7 -9 -13 -35 -14 -58 l-3 -42 -22 28 c-12 15 -31 39 -43 52 -12 13 -21 28 -21 33 0 16 -56 8 -77 -11 -12 -11 -24 -17 -27 -14 -12 12 -6 40 13 57 17 16 35 56 25 56 -3 0 -24 -20 -47 -45 -34 -35 -50 -45 -76 -45 l-32 0 25 43 c23 38 30 43 77 50 29 5 47 12 41 16 -6 4 -9 17 -5 30 4 17 8 19 14 9 7 -10 9 -9 9 5 0 11 8 17 25 17 14 0 26 -4 26 -10 6 -47 9 -48 202 -49 100 0 188 3 195 8 7 4 14 28 15 52 2 37 -2 45 -23 56 -15 8 -41 11 -66 8 -51 -7 -51 -5 -51 127 0 52 -5 104 -11 115 -6 11 -8 24 -4 28 4 5 -1 5 -11 2 -10 -4 -28 -2 -39 4 -15 8 -19 8 -14 0 5 -7 -2 -11 -18 -11 -33 0 -37 -14 -38 -171 -1 -118 -3 -130 -14 -104 -7 17 -13 40 -14 53 0 13 -4 21 -8 18 -7 -4 -21 27 -65 148 -9 26 -54 76 -67 76 -3 0 -16 -9 -29 -19z m45 -21 c8 0 14 -6 14 -14 0 -13 19 -61 61 -153 10 -24 19 -47 19 -53 0 -5 11 -35 25 -66 14 -31 25 -58 25 -60 0 -2 -21 -2 -47 -1 -44 2 -47 4 -55 35 -8 31 -11 32 -57 32 -47 0 -50 -2 -56 -30 -4 -16 -10 -30 -13 -31 -78 -12 -124 -4 -93 15 5 3 23 43 41 88 18 46 40 101 49 123 10 22 23 59 31 83 9 30 18 41 28 37 7 -3 20 -5 28 -5z m256 -141 l-4 -141 29 6 c15 3 48 6 73 8 l45 3 3 -41 3 -40 -116 0 -115 1 0 173 0 172 43 0 42 0 -3 -141z m-781 -370 c21 -11 25 -34 9 -44 -5 -3 -10 -15 -10 -26 0 -23 -8 -24 -34 -4 -27 21 -59 19 -89 -5 -65 -52 -34 -190 43 -190 15 0 35 9 45 20 24 27 27 26 49 -15 19 -35 19 -36 0 -50 -79 -61 -201 -29 -239 62 -43 103 6 233 100 263 33 10 97 5 126 -11z m1139 12 c14 -1 33 -8 43 -15 18 -14 18 -16 1 -48 -22 -44 -21 -44 -44 -23 -28 26 -81 13 -103 -24 -39 -66 -6 -171 53 -171 17 0 39 9 50 20 22 22 40 26 40 8 0 -6 8 -20 17 -30 15 -17 15 -20 -4 -37 -34 -32 -97 -46 -140 -33 -42 13 -84 45 -101 79 -17 31 -15 158 2 191 26 51 87 90 133 87 16 -1 39 -3 53 -4z m600 -4 c25 -9 35 -18 36 -34 1 -13 -3 -23 -7 -23 -5 0 -9 -9 -9 -20 0 -24 -8 -25 -34 -5 -25 19 -62 19 -70 0 -6 -16 30 -55 50 -55 7 0 29 -15 48 -34 58 -54 47 -130 -23 -166 -47 -24 -63 -24 -116 -6 -48 17 -50 24 -30 72 l15 37 24 -22 c28 -26 79 -26 84 1 3 18 -34 58 -55 58 -24 0 -71 53 -81 90 -11 43 14 85 62 106 38 16 60 16 106 1z m-1585 -134 l0 -136 73 2 72 2 0 -40 0 -41 -115 0 -114 0 -3 171 c-2 94 -1 173 1 175 2 2 23 4 46 4 l41 0 -1 -137z m267 -35 c-2 -95 -4 -173 -5 -174 -1 -1 -18 -4 -37 -6 l-35 -3 -3 178 -2 177 42 0 43 0 -3 -172z m460 2 c2 -94 2 -174 0 -178 -1 -5 -21 -6 -43 -3 l-40 6 0 168 c0 92 1 169 1 172 0 3 18 5 40 5 l39 0 3 -170z m-844 42 c-2 -22 0 -38 4 -36 4 3 7 -21 6 -53 0 -32 -3 -52 -5 -45 -7 18 -59 43 -77 36 -8 -3 -17 -12 -20 -20 -3 -8 -10 -14 -16 -14 -6 0 -8 4 -5 10 3 6 -1 7 -10 4 -11 -5 -18 0 -22 15 -3 11 -9 21 -14 21 -12 0 -11 47 1 55 5 3 7 12 4 19 -8 21 35 47 57 36 31 -17 67 -12 74 11 11 34 28 6 23 -39z m419 -94 c-2 -13 -4 -3 -4 22 0 25 2 35 4 23 2 -13 2 -33 0 -45z" class=""></path> <path d="M4317 3453 c-2 -10 -8 -26 -12 -35 -6 -15 -2 -18 20 -18 23 0 26 3 21 23 -3 12 -6 28 -6 35 0 18 -17 15 -23 -5z"></path> <path d="M1006 3623 c-5 -13 -13 -23 -20 -23 -6 0 -5 -4 3 -9 11 -7 10 -13 -5 -35 -33 -45 -67 -46 -249 -12 -16 3 -75 9 -131 12 -82 6 -112 4 -160 -11 -63 -20 -134 -63 -157 -95 -8 -11 -17 -17 -20 -13 -4 3 -7 -1 -7 -11 0 -9 -7 -28 -16 -41 -9 -13 -14 -30 -11 -37 3 -8 6 -6 6 5 1 10 6 15 11 12 6 -3 10 0 10 7 0 8 9 20 20 28 11 8 20 20 20 27 0 7 3 13 8 13 4 0 22 13 41 29 31 26 89 48 178 66 17 3 87 -3 155 -14 190 -31 213 -34 257 -26 55 9 84 48 78 107 -3 36 -5 39 -11 21z"></path> <path d="M3246 3148 c-22 -5 -49 -16 -59 -26 -24 -21 -48 -67 -40 -76 4 -3 1 -6 -4 -6 -8 0 -8 -9 -1 -32 19 -58 29 -74 55 -89 l25 -16 -31 -13 c-17 -7 -31 -20 -31 -29 -1 -9 -8 4 -17 29 -8 25 -21 52 -29 61 -8 9 -11 18 -8 21 3 4 -2 20 -10 37 -9 17 -16 32 -15 33 0 2 -4 16 -10 31 -6 16 -11 32 -11 36 0 16 -37 41 -62 41 -30 0 -63 -34 -72 -75 -4 -16 -15 -47 -25 -70 -10 -22 -22 -51 -28 -65 -9 -22 -11 -19 -18 35 -7 57 -31 115 -47 115 -4 0 -8 7 -8 16 0 8 -5 12 -11 9 -6 -4 -16 1 -23 10 -10 13 -33 18 -102 22 -125 7 -121 13 -126 -204 -3 -187 -2 -193 56 -193 14 0 28 -5 32 -11 4 -8 9 -8 17 0 6 6 24 11 40 11 36 0 127 41 127 57 0 6 5 15 10 18 7 4 8 -3 4 -20 -4 -18 -1 -32 12 -46 34 -38 132 -9 134 39 0 21 58 15 65 -7 3 -11 12 -24 19 -31 18 -14 93 -23 100 -12 3 5 18 7 33 5 16 -2 53 -7 83 -10 53 -4 57 -3 98 34 23 22 42 48 42 59 0 16 2 17 11 4 9 -12 10 -12 5 3 -3 10 -6 34 -6 53 0 20 -4 33 -9 29 -6 -3 -15 5 -22 17 -7 12 -20 29 -31 38 -18 15 -18 16 5 41 13 14 26 40 29 58 4 26 0 36 -18 48 -35 22 -84 30 -128 21z m-216 -33 c6 -8 9 -18 7 -22 -3 -5 5 -31 18 -58 13 -28 24 -56 24 -63 1 -7 5 -20 10 -30 5 -9 14 -30 21 -47 7 -16 16 -37 20 -45 4 -9 11 -30 15 -48 l7 -33 -43 3 c-39 3 -44 6 -51 36 -9 33 -10 33 -61 30 -49 -3 -52 -5 -57 -33 -5 -27 -9 -30 -53 -35 -40 -5 -47 -3 -47 11 0 10 4 20 9 23 5 3 12 18 16 33 3 15 17 52 31 81 13 29 24 57 24 63 0 5 9 27 20 49 11 22 20 47 20 58 0 38 46 56 70 27z m303 4 c38 -10 39 -11 32 -47 -8 -43 -22 -63 -33 -45 -14 22 -58 33 -78 18 -24 -17 -11 -33 51 -65 55 -28 78 -61 78 -112 0 -48 -28 -80 -83 -97 -41 -12 -112 -1 -125 19 -7 11 5 90 14 87 3 0 16 4 29 11 12 7 27 10 32 7 17 -10 2 -24 -20 -18 -25 7 -26 -5 -2 -23 20 -16 68 -18 77 -4 11 17 -15 50 -57 71 -54 27 -64 38 -76 80 -11 40 -3 66 29 96 37 32 73 39 132 22z m-589 -13 c18 -7 44 -29 57 -47 20 -29 24 -46 24 -111 0 -82 -13 -110 -66 -150 -26 -19 -186 -41 -195 -26 -3 4 -4 84 -3 178 l2 170 74 0 c40 0 89 -6 107 -14z" class=""></path> <path d="M2986 2969 c-2 -8 -7 -26 -10 -41 -6 -25 -4 -28 20 -28 24 0 25 2 19 33 -8 38 -22 56 -29 36z"></path> <path d="M2648 2949 c-3 -109 2 -121 44 -98 43 23 51 39 52 98 1 65 -12 85 -61 95 l-32 7 -3 -102z m56 55 c21 -8 21 -81 1 -108 -8 -11 -16 -17 -16 -13 -1 4 -2 11 -3 16 0 5 -4 13 -8 16 -4 4 -3 16 3 26 5 11 6 19 1 19 -5 0 -7 11 -4 25 5 28 4 27 26 19z"></path> <path d="M1965 3121 c-3 -6 -11 -9 -16 -6 -5 4 -9 4 -9 1 0 -12 34 -76 41 -76 4 0 19 -21 33 -46 37 -66 35 -110 -9 -161 l-35 -41 -83 2 c-45 2 -95 8 -110 14 -16 7 -33 9 -38 6 -6 -3 -15 -1 -22 4 -30 24 -214 1 -233 -29 -3 -5 -11 -6 -17 -3 -7 4 -9 4 -5 0 3 -4 -3 -17 -14 -28 -12 -12 -18 -28 -15 -39 4 -13 -7 -32 -34 -60 -21 -22 -39 -37 -39 -32 -1 4 -9 -10 -20 -32 -28 -58 -26 -138 6 -232 15 -43 31 -84 37 -90 11 -15 0 -31 -47 -75 -16 -15 -33 -25 -39 -21 -6 3 -7 1 -3 -5 5 -8 -2 -12 -18 -12 -14 0 -26 -4 -26 -9 0 -16 -61 -25 -70 -11 -4 7 -12 10 -18 6 -6 -3 -17 1 -25 9 -9 8 -20 15 -25 15 -27 0 -51 125 -28 147 3 4 0 13 -7 21 -6 9 -7 13 -1 9 13 -8 36 120 35 194 -1 82 -5 107 -18 121 -7 6 -13 23 -13 37 0 13 -3 22 -6 19 -3 -3 -16 5 -30 19 -15 15 -29 21 -37 16 -9 -6 -8 -8 3 -11 14 -2 50 -69 50 -91 0 -5 5 -11 12 -13 19 -7 15 -183 -7 -243 -26 -73 -26 -176 1 -211 56 -76 127 -91 217 -49 32 15 66 38 76 51 19 24 41 32 41 15 0 -18 -62 -102 -110 -149 -25 -26 -73 -60 -106 -77 -50 -25 -73 -30 -150 -33 -70 -3 -99 0 -123 12 -45 24 -88 72 -95 106 -3 17 -9 44 -12 60 -12 61 38 189 132 335 49 78 84 161 84 203 0 25 -39 100 -40 77 -1 -5 -7 1 -14 15 -8 14 -12 28 -10 32 3 5 -1 8 -9 8 -8 0 -20 7 -27 15 -24 30 -83 49 -147 50 -35 0 -63 -3 -63 -6 0 -4 -17 -10 -37 -14 -21 -3 -54 -15 -75 -25 -20 -10 -39 -16 -42 -13 -3 4 -6 1 -6 -5 0 -7 -7 -12 -15 -12 -8 0 -15 -9 -15 -19 0 -23 36 -52 55 -44 8 2 27 -8 44 -22 30 -27 30 -29 26 -109 -2 -44 -11 -110 -19 -146 -9 -36 -16 -86 -16 -112 0 -36 -4 -48 -15 -48 -8 0 -15 -4 -15 -10 0 -5 7 -7 15 -4 12 5 15 -2 15 -32 0 -38 19 -107 33 -120 4 -4 7 -13 7 -20 0 -7 16 -30 35 -51 19 -21 35 -45 35 -53 0 -12 2 -12 9 -2 7 11 11 11 22 -1 18 -18 54 -37 70 -37 7 0 -6 13 -27 29 -63 46 -111 102 -134 156 -27 63 -36 172 -20 250 13 64 24 124 35 192 17 99 -23 163 -102 163 -67 0 -50 18 47 51 117 39 214 43 261 10 53 -36 79 -82 79 -140 0 -59 -21 -111 -89 -219 -28 -45 -51 -86 -51 -92 0 -5 -4 -10 -9 -10 -5 0 -18 -26 -31 -59 -53 -144 -46 -206 33 -282 28 -27 57 -49 64 -49 7 0 13 -4 13 -8 0 -15 76 -35 129 -34 72 2 155 27 216 65 53 33 115 90 115 107 0 6 4 10 10 10 13 0 63 107 55 120 -3 5 -13 10 -21 10 -8 0 -14 4 -14 9 0 6 9 9 20 8 11 -1 20 -5 20 -11 0 -25 41 32 46 66 4 22 11 35 17 31 6 -4 8 0 4 10 -3 10 -2 17 3 17 6 0 12 1 15 2 25 8 95 13 95 7 0 -5 12 -8 28 -7 15 1 59 -5 97 -12 90 -16 118 -19 185 -19 82 1 110 3 110 11 0 7 41 23 53 20 4 -1 7 2 7 8 0 6 6 10 13 10 7 0 20 9 30 20 10 12 23 18 29 14 7 -4 8 -3 4 4 -4 7 -4 12 1 12 10 0 67 89 61 95 -2 2 -35 -27 -73 -65 -39 -38 -78 -69 -87 -70 -9 0 -19 -4 -22 -8 -8 -14 -141 -35 -178 -29 -18 3 -71 13 -118 21 -245 44 -301 29 -304 -81 -1 -52 -17 -43 -38 20 -10 29 -22 60 -28 70 -6 10 -14 55 -17 100 -5 80 -4 83 27 125 20 28 48 51 77 64 42 18 52 19 102 8 31 -7 68 -21 83 -31 14 -11 29 -19 33 -19 4 0 19 -8 33 -19 39 -27 108 -66 182 -103 75 -37 174 -49 218 -27 30 15 102 88 102 103 0 5 7 1 15 -10 14 -18 14 -18 9 3 -3 12 1 34 9 50 29 53 36 90 25 129 -5 21 -7 50 -4 66 3 15 1 28 -3 28 -5 0 -15 17 -22 37 -7 21 -19 49 -28 64 -20 31 -107 129 -115 129 -4 0 -18 11 -32 25 -14 14 -30 25 -37 25 -7 0 -22 3 -33 6 -12 3 -25 1 -29 -5z m82 -52 c63 -40 153 -141 153 -169 0 -9 4 -20 8 -25 15 -18 32 -92 32 -142 0 -136 -76 -213 -209 -213 -33 0 -73 5 -88 11 -53 22 -108 49 -144 72 -190 119 -249 142 -316 122 -34 -10 -43 -10 -43 -1 0 12 44 37 113 65 39 16 120 14 202 -5 39 -9 102 -18 142 -21 l71 -5 46 46 c46 46 52 64 46 136 -3 40 -41 110 -71 133 -16 11 -29 24 -29 29 0 17 27 7 87 -33z m-1270 -936 c-3 -10 -5 -4 -5 12 0 17 2 24 5 18 2 -7 2 -21 0 -30z"></path> <path d="M5192 2944 c-11 -38 1 -53 35 -40 12 5 14 9 5 18 -7 7 -12 22 -12 35 0 35 -15 28 -28 -13z"></path> <path d="M5150 2805 c-10 -30 -16 -35 -43 -35 -35 0 -75 -18 -47 -21 65 -7 90 -5 90 8 0 7 7 16 15 19 8 4 15 12 15 20 0 9 11 14 28 14 21 0 32 -7 40 -25 15 -33 56 -48 105 -39 50 8 36 22 -27 26 -47 3 -50 5 -58 36 -8 31 -11 32 -58 32 -47 0 -49 -1 -60 -35z"></path> <path d="M3033 2643 c4 -6 -27 -9 -78 -8 -47 2 -88 -1 -91 -6 -3 -5 -10 -6 -16 -3 -7 4 -8 2 -4 -4 10 -16 -7 -15 -22 1 -20 19 -63 15 -78 -8 -8 -13 -14 -63 -16 -145 -3 -122 -4 -125 -26 -128 -42 -6 -49 11 -51 125 -2 146 -8 163 -60 163 -48 0 -56 -25 -54 -168 1 -100 5 -136 17 -155 9 -13 13 -27 9 -32 -5 -4 -2 -5 5 -1 7 4 14 1 18 -7 6 -16 11 -18 94 -22 52 -3 70 0 92 16 15 10 32 19 38 19 5 0 10 5 10 10 0 6 5 10 11 10 6 0 9 -6 6 -14 -8 -20 18 -39 56 -41 27 -2 34 3 44 29 6 17 12 52 12 79 1 44 3 47 29 48 40 2 45 3 66 15 12 7 21 25 22 43 1 17 -2 29 -6 26 -5 -3 -11 -1 -15 5 -3 5 -26 10 -51 10 -33 0 -44 4 -44 16 0 12 12 15 63 13 35 -1 69 1 74 4 8 5 10 -36 7 -127 -4 -110 -2 -137 11 -149 17 -17 75 -13 87 6 8 12 12 57 9 90 -2 13 5 17 34 17 41 0 72 14 98 43 9 11 17 16 17 11 4 -138 7 -157 22 -168 18 -13 206 -15 227 -2 15 9 14 73 -1 82 -7 4 -38 7 -69 7 -55 -1 -57 0 -61 28 -4 27 -2 29 29 30 18 1 37 2 41 3 13 2 38 30 36 41 -5 34 -19 56 -33 54 -44 -4 -71 2 -71 16 0 12 14 15 63 15 57 0 65 2 77 24 10 20 10 31 1 53 l-11 28 -111 -1 c-85 0 -113 -4 -119 -15 -12 -18 -37 -18 -80 1 -44 20 -177 20 -189 1 -6 -10 -10 -9 -15 5 -3 9 -9 14 -13 11 -3 -4 -15 -2 -26 4 -10 6 -17 7 -14 2z m-412 -166 c-2 -121 -1 -130 20 -148 28 -24 70 -24 97 0 20 17 22 28 22 150 l0 131 30 0 30 0 0 -124 c0 -148 -8 -176 -59 -204 -44 -25 -73 -27 -122 -10 -70 24 -79 49 -79 208 l0 131 31 -3 31 -3 -1 -128z m461 127 c3 -3 4 -14 1 -25 -5 -17 -15 -19 -83 -19 l-78 0 -4 -46 -3 -46 62 5 63 5 0 -30 0 -30 -62 4 -62 3 3 -82 3 -82 -31 1 -31 1 0 174 0 173 108 0 c60 0 111 -3 114 -6z m228 -24 c27 -19 30 -27 30 -71 0 -42 -5 -55 -29 -80 -25 -25 -37 -29 -84 -29 l-54 0 5 -68 4 -67 -31 -1 -31 -2 0 176 0 175 80 -6 c59 -4 87 -11 110 -27z m290 5 c0 -25 -1 -25 -84 -25 l-83 0 -1 -46 -1 -45 57 2 c56 3 57 2 60 -25 l4 -29 -59 7 -59 7 0 -57 1 -56 79 -2 79 -1 4 -29 c4 -27 3 -28 -28 -22 -17 3 -67 6 -110 6 l-79 0 0 168 0 169 110 2 110 2 0 -26z m-245 4 c11 -17 -1 -21 -15 -4 -8 9 -8 15 -2 15 6 0 14 -5 17 -11z"></path> <path d="M3174 2500 c-1 -59 -1 -60 27 -60 36 0 79 20 79 36 0 7 3 19 6 27 9 25 -32 57 -73 57 l-38 0 -1 -60z m79 11 c8 -31 -3 -38 -48 -32 -5 1 -3 6 5 11 10 6 11 10 3 10 -24 0 -13 26 11 28 16 1 25 -5 29 -17z"></path> </g> </svg>